<?xml version="1.0" standalone="no"?>
<!DOCTYPE svg PUBLIC "-//W3C//DTD SVG 1.1//EN" "http://www.w3.org/Graphics/SVG/1.1/DTD/svg11.dtd">
<svg xmlns="http://www.w3.org/2000/svg" xmlns:xlink="http://www.w3.org/1999/xlink" version="1.1" id="Слой_1" x="0px" y="0px" viewBox="0 0 841.9 595.3" style="enable-background:new 0 0 841.9 595.3;" xml:space="preserve" width="841.9000244140625" height="595.2999877929688">
<style type="text/css">
	.st0{fill-rule:evenodd;clip-rule:evenodd;fill:#AC9366;}
</style>
<g>
	<polygon class="st0" points="372.6,367.7 381.4,367.7 381.4,318.5 394.8,298.3 394.8,191.7 372.6,164.9  "/>
	<polygon class="st0" points="409.8,367.6 402.2,367.6 402.2,188.9 391.4,176.4 391.4,114.1 409.8,80  "/>
	<polygon class="st0" points="459.3,367.7 450.5,367.7 450.5,272.9 437.1,252.6 437.1,145.2 459.3,117.3  "/>
	<polygon class="st0" points="420.9,367.7 428.5,367.7 428.5,141.5 439.3,129 439.3,66.7 420.9,32.6  "/>
</g>
<path class="st0" d="M304.5,473.2h-6.5v-0.8h13.8v0.8h-6.5v16.9h-0.8V473.2L304.5,473.2z M327.6,484.9H317l-2.4,5.2h-0.9l8.2-17.7  h0.8l8.2,17.7h-0.9L327.6,484.9L327.6,484.9z M327.2,484.2l-4.9-10.8l-5,10.8H327.2L327.2,484.2z M339.2,473.2h-6.5v-0.8h13.8v0.8  h-6.5v16.9h-0.8V473.2L339.2,473.2z M355.9,473.2h-6.5v-0.8h13.8v0.8h-6.5v16.9h-0.8V473.2L355.9,473.2z M376.1,490.2  c-1.7,0-3.3-0.4-4.7-1.2c-1.4-0.8-2.5-1.8-3.3-3.2c-0.8-1.4-1.2-2.9-1.2-4.6c0-1.7,0.4-3.2,1.2-4.6c0.8-1.4,1.9-2.4,3.3-3.2  c1.4-0.8,2.9-1.2,4.7-1.2c1.7,0,3.3,0.4,4.7,1.2c1.4,0.8,2.5,1.8,3.3,3.2c0.8,1.4,1.2,2.9,1.2,4.6c0,1.7-0.4,3.2-1.2,4.6  c-0.8,1.4-1.9,2.4-3.3,3.2C379.3,489.8,377.8,490.2,376.1,490.2L376.1,490.2z M376.1,489.4c1.5,0,3-0.4,4.2-1.1  c1.3-0.7,2.3-1.7,3-2.9c0.7-1.2,1.1-2.6,1.1-4.2c0-1.5-0.4-2.9-1.1-4.2c-0.7-1.2-1.7-2.2-3-2.9c-1.3-0.7-2.7-1.1-4.2-1.1  c-1.5,0-2.9,0.4-4.2,1.1c-1.3,0.7-2.2,1.7-3,2.9c-0.7,1.2-1.1,2.6-1.1,4.2c0,1.5,0.4,2.9,1.1,4.2c0.7,1.2,1.7,2.2,3,2.9  C373.1,489,374.5,489.4,376.1,489.4L376.1,489.4z M399.6,490.2c-1.7,0-3.3-0.4-4.7-1.2c-1.4-0.8-2.5-1.8-3.3-3.2  c-0.8-1.4-1.2-2.9-1.2-4.6c0-1.7,0.4-3.2,1.2-4.6c0.8-1.4,1.9-2.4,3.3-3.2c1.4-0.8,2.9-1.2,4.7-1.2c1.7,0,3.3,0.4,4.7,1.2  c1.4,0.8,2.5,1.8,3.3,3.2c0.8,1.4,1.2,2.9,1.2,4.6c0,1.7-0.4,3.2-1.2,4.6c-0.8,1.4-1.9,2.4-3.3,3.2  C402.9,489.8,401.3,490.2,399.6,490.2L399.6,490.2z M399.6,489.4c1.5,0,3-0.4,4.2-1.1c1.3-0.7,2.3-1.7,3-2.9  c0.7-1.2,1.1-2.6,1.1-4.2c0-1.5-0.4-2.9-1.1-4.2c-0.7-1.2-1.7-2.2-3-2.9c-1.3-0.7-2.7-1.1-4.2-1.1c-1.5,0-2.9,0.4-4.2,1.1  c-1.3,0.7-2.2,1.7-3,2.9c-0.7,1.2-1.1,2.6-1.1,4.2c0,1.5,0.4,2.9,1.1,4.2c0.7,1.2,1.7,2.2,3,2.9C396.7,489,398.1,489.4,399.6,489.4  L399.6,489.4z M432.9,490.2c-1.3,0-2.5-0.2-3.6-0.7c-1.2-0.5-2-1-2.7-1.8l0.5-0.6c0.6,0.7,1.4,1.2,2.5,1.7c1.1,0.4,2.2,0.6,3.4,0.6  c1.8,0,3.1-0.3,4-1c0.9-0.7,1.4-1.6,1.4-2.7c0-0.8-0.2-1.5-0.7-2c-0.5-0.5-1.1-0.9-1.7-1.2c-0.7-0.3-1.6-0.5-2.8-0.8  c-1.3-0.3-2.3-0.6-3.1-0.9c-0.8-0.3-1.4-0.8-2-1.4c-0.5-0.6-0.8-1.5-0.8-2.5c0-0.8,0.2-1.6,0.7-2.3c0.4-0.7,1.1-1.2,2-1.7  c0.9-0.4,2-0.6,3.4-0.6c1,0,1.9,0.1,2.8,0.4c0.9,0.3,1.7,0.7,2.4,1.2l-0.4,0.7c-0.7-0.5-1.5-0.9-2.3-1.1c-0.9-0.3-1.7-0.4-2.5-0.4  c-1.7,0-3,0.4-3.9,1.1c-0.9,0.7-1.3,1.6-1.3,2.7c0,0.9,0.2,1.5,0.7,2.1c0.5,0.5,1.1,0.9,1.8,1.2c0.7,0.3,1.6,0.5,2.8,0.8  c1.3,0.3,2.3,0.6,3.1,0.9s1.4,0.7,2,1.4c0.5,0.6,0.8,1.4,0.8,2.5c0,0.8-0.2,1.6-0.7,2.3c-0.4,0.7-1.1,1.2-2.1,1.6  C435.4,490,434.3,490.2,432.9,490.2L432.9,490.2z M449.2,473.2h-6.5v-0.8h13.8v0.8H450v16.9h-0.8V473.2L449.2,473.2z M468.7,490.2  c-2.2,0-3.9-0.6-5.1-1.9c-1.2-1.3-1.8-3.2-1.8-5.6v-10.2h0.9v10.2c0,2.3,0.5,4,1.6,5.1c1,1.1,2.5,1.7,4.5,1.7c2,0,3.5-0.6,4.5-1.7  c1.1-1.1,1.6-2.8,1.6-5.1v-10.2h0.8v10.2c0,2.5-0.6,4.4-1.8,5.6C472.6,489.5,470.9,490.2,468.7,490.2L468.7,490.2z M484.4,472.4h6.8  c1.8,0,3.5,0.4,4.9,1.1c1.4,0.8,2.5,1.8,3.3,3.1c0.8,1.3,1.2,2.9,1.2,4.6c0,1.7-0.4,3.2-1.2,4.6c-0.8,1.3-1.9,2.4-3.3,3.1  c-1.4,0.8-3.1,1.1-4.9,1.1h-6.8V472.4L484.4,472.4z M491.1,489.3c1.7,0,3.2-0.3,4.5-1c1.3-0.7,2.3-1.6,3-2.9  c0.7-1.2,1.1-2.6,1.1-4.2c0-1.5-0.4-2.9-1.1-4.2c-0.7-1.2-1.7-2.2-3-2.9c-1.3-0.7-2.8-1-4.5-1h-5.9v16.1H491.1L491.1,489.3z   M507.6,472.4h0.9v17.7h-0.9V472.4L507.6,472.4z M524.7,490.2c-1.7,0-3.3-0.4-4.7-1.2c-1.4-0.8-2.5-1.8-3.3-3.2  c-0.8-1.4-1.2-2.9-1.2-4.6c0-1.7,0.4-3.2,1.2-4.6c0.8-1.4,1.9-2.4,3.3-3.2c1.4-0.8,2.9-1.2,4.7-1.2c1.7,0,3.3,0.4,4.7,1.2  c1.4,0.8,2.5,1.8,3.3,3.2c0.8,1.4,1.2,2.9,1.2,4.6c0,1.7-0.4,3.2-1.2,4.6c-0.8,1.4-1.9,2.4-3.3,3.2  C528,489.8,526.4,490.2,524.7,490.2L524.7,490.2z M524.7,489.4c1.5,0,3-0.4,4.2-1.1c1.3-0.7,2.3-1.7,3-2.9c0.7-1.2,1.1-2.6,1.1-4.2  c0-1.5-0.4-2.9-1.1-4.2c-0.7-1.2-1.7-2.2-3-2.9c-1.3-0.7-2.7-1.1-4.2-1.1c-1.5,0-2.9,0.4-4.2,1.1c-1.3,0.7-2.2,1.7-3,2.9  c-0.7,1.2-1.1,2.6-1.1,4.2c0,1.5,0.4,2.9,1.1,4.2c0.7,1.2,1.7,2.2,3,2.9C521.8,489,523.2,489.4,524.7,489.4z"/>
<path class="st0" d="M282.7,446.4c-0.7,0-1.1,0-1.3-0.1c-0.2-0.1-0.3-0.2-0.3-0.3v-38.8h-12c-0.5,0-0.9,0-1.3-0.1  c-0.3-0.1-0.5-0.2-0.5-0.3c0-0.2,0.2-0.3,0.5-0.3c0.3,0,0.7-0.1,1.3-0.1h27.5c0.7,0,1.1,0,1.4,0.1c0.3,0.1,0.4,0.2,0.4,0.3  c0,0.1-0.1,0.1-0.2,0.2c-0.1,0-0.2,0.1-0.4,0.1c-0.2,0-0.4,0-0.6,0.1c-0.2,0-0.4,0-0.6,0h-12.1V446c0,0.1-0.2,0.2-0.5,0.3  C283.6,446.4,283.2,446.4,282.7,446.4L282.7,446.4z M302.6,426.2c0,1.8,0.2,3.5,0.7,5.1c0.4,1.6,1,3.2,1.8,4.6  c0.8,1.4,1.7,2.8,2.8,3.9c1.1,1.2,2.3,2.2,3.6,3.1c1.3,0.9,2.7,1.5,4.2,2c1.5,0.5,3.1,0.7,4.7,0.7c1.6,0,3.2-0.2,4.7-0.7  c1.5-0.5,2.9-1.1,4.3-2c1.3-0.9,2.5-1.9,3.6-3c1.1-1.2,2-2.5,2.8-3.9c0.8-1.4,1.4-3,1.8-4.6c0.4-1.6,0.6-3.4,0.6-5.2  c0-1.8-0.2-3.5-0.6-5.2c-0.4-1.7-1-3.2-1.8-4.7c-0.8-1.4-1.7-2.8-2.8-3.9c-1.1-1.2-2.3-2.2-3.6-3c-1.3-0.8-2.7-1.5-4.3-2  c-1.5-0.5-3.1-0.7-4.8-0.7c-1.6,0-3.2,0.2-4.7,0.7c-1.5,0.5-2.9,1.1-4.3,2c-1.3,0.8-2.5,1.9-3.6,3c-1.1,1.2-2,2.5-2.8,3.9  c-0.8,1.4-1.4,3-1.8,4.7C302.9,422.7,302.6,424.4,302.6,426.2L302.6,426.2z M298.7,426.2c0-1.9,0.3-3.7,0.8-5.4  c0.5-1.7,1.2-3.3,2.2-4.8c0.9-1.5,2.1-2.9,3.4-4.1c1.3-1.2,2.8-2.3,4.4-3.2c1.6-0.9,3.4-1.6,5.2-2c1.9-0.5,3.8-0.7,5.8-0.7  c2,0,4,0.2,5.9,0.7c1.9,0.5,3.6,1.1,5.2,2c1.6,0.9,3.1,1.9,4.4,3.1c1.3,1.2,2.4,2.6,3.4,4.1c0.9,1.5,1.7,3.1,2.2,4.9  c0.5,1.7,0.8,3.5,0.8,5.4c0,1.9-0.3,3.7-0.8,5.4c-0.5,1.7-1.3,3.3-2.2,4.8c-0.9,1.5-2.1,2.9-3.4,4.1c-1.3,1.2-2.8,2.3-4.4,3.2  c-1.6,0.9-3.4,1.5-5.2,2c-1.9,0.5-3.8,0.7-5.8,0.7c-2,0-3.9-0.2-5.8-0.7c-1.8-0.5-3.6-1.2-5.2-2.1c-1.6-0.9-3.1-2-4.4-3.2  c-1.3-1.2-2.5-2.6-3.4-4.1c-1-1.5-1.7-3.1-2.2-4.8C298.9,429.8,298.7,428,298.7,426.2L298.7,426.2z M381,446.3c0,0-0.1,0-0.3,0  c-0.2,0-0.5,0-0.8,0c-0.3,0-0.7,0-1.1,0c-0.4,0-0.8,0-1.2,0c-0.4,0-0.7,0-1,0c-0.3,0-0.6,0-0.7,0c-2.9-2-5.4-3.7-7.6-5.2  c-2.2-1.5-4.1-2.8-5.8-3.9c-1.6-1.1-3-2-4.1-2.8c-1.1-0.8-2.1-1.4-2.8-1.9c-0.7-0.5-1.3-0.9-1.7-1.1c-0.4-0.3-0.7-0.5-0.9-0.6  c-0.2-0.1-0.3-0.2-0.3-0.2c0,0-0.1,0-0.1,0c0-0.1,0-0.1,0-0.2c0-0.1,0-0.1,0-0.1c0,0,0.1-0.1,0.3-0.1c0.1,0,0.4,0,0.8,0  c0.8,0,1.4,0,2,0c0.6,0,1.1,0,1.5,0c0.4,0,0.8,0,1.2,0c0.3,0,0.7,0,1,0c0.9,0,1.9,0,2.9-0.1c1-0.1,2-0.1,3-0.3  c1.3-0.2,2.5-0.7,3.5-1.3c1.1-0.6,1.9-1.4,2.7-2.3c0.7-0.9,1.3-2.1,1.7-3.3c0.4-1.3,0.6-2.7,0.6-4.2c0-1.4-0.2-2.7-0.5-3.9  s-0.8-2.3-1.4-3.3c-0.6-1-1.4-1.8-2.3-2.4c-0.9-0.7-2-1.1-3.1-1.4c-0.9-0.2-1.8-0.3-2.7-0.4c-0.9-0.1-1.7-0.1-2.6-0.1h-11.2V446  c0,0.1-0.2,0.2-0.5,0.3c-0.3,0.1-0.8,0.1-1.3,0.1c-0.6,0-1,0-1.3-0.1c-0.3-0.1-0.4-0.2-0.4-0.3v-39.1c0-0.1,0.1-0.2,0.2-0.3  c0.2-0.1,0.4-0.1,0.6-0.1c0.2,0,0.5-0.1,0.7-0.1c0.3,0,0.5,0,0.7,0h13.1c2.2,0,4.2,0.2,6.1,0.7c1.9,0.5,3.5,1.2,4.9,2.2  c1.4,1,2.5,2.3,3.3,3.8c0.8,1.6,1.2,3.4,1.2,5.6c0,1.5-0.2,2.9-0.6,4.1c-0.4,1.2-1,2.3-1.7,3.2c-0.7,0.9-1.6,1.7-2.6,2.4  c-1,0.6-2.1,1.2-3.3,1.6c-1.2,0.4-2.5,0.7-3.9,0.9c-1.4,0.2-2.8,0.3-4.2,0.3c-0.3,0-0.5,0-0.6,0c-0.2,0-0.3,0-0.5,0  c-0.2,0-0.3,0-0.5,0c-0.2,0-0.4,0-0.6-0.1L381,446.3L381,446.3z M384.1,410.6V446c0,0.1,0,0.2-0.1,0.3c-0.1,0.1-0.2,0.1-0.5,0.1  c-0.3,0-0.5,0-0.5-0.1c-0.1-0.1-0.1-0.2-0.1-0.3v-39.3c0-0.1,0-0.1,0-0.2c0-0.1,0.1-0.1,0.2-0.2c0.1-0.1,0.3-0.1,0.5-0.1  c0.2,0,0.5,0,0.9,0c0.2,0,0.5,0,0.8,0.1c0.3,0.1,0.6,0.2,0.9,0.4l30.2,35.2v-35.3c0-0.1,0-0.2,0.1-0.3c0-0.1,0.2-0.2,0.5-0.2  c0.3,0,0.5,0,0.5,0.1c0.1,0.1,0.1,0.2,0.1,0.4v39.3c0,0.1,0,0.1-0.1,0.2c0,0.1-0.1,0.1-0.2,0.2c-0.1,0.1-0.3,0.1-0.5,0.1  c-0.2,0-0.5,0-0.9,0c-0.3,0-0.6,0-0.8,0c-0.2,0-0.3-0.1-0.4-0.1c-0.1,0-0.2-0.1-0.2-0.1c-0.1-0.1-0.1-0.1-0.1-0.2L384.1,410.6  L384.1,410.6z M456.5,413.2c0.1,0.1,0,0.1-0.1,0.2c-0.1,0.1-0.3,0.1-0.5,0.1c-0.2,0-0.5,0-0.8,0.1c-0.3,0-0.6,0-0.8,0  c-0.3,0-0.5-0.1-0.7-0.1c-0.2,0-0.3-0.1-0.4-0.2c-0.9-1.1-1.9-2-3-2.9c-1.2-0.8-2.4-1.5-3.7-2c-1.3-0.5-2.6-0.9-3.9-1.1  c-1.3-0.2-2.6-0.4-3.8-0.4c-1,0-1.9,0.1-3,0.1c-1,0.1-2,0.3-3,0.5c-1,0.2-1.9,0.6-2.8,1c-0.9,0.4-1.6,1-2.3,1.6  c-0.7,0.7-1.2,1.5-1.6,2.4c-0.4,0.9-0.6,2-0.6,3.3c0,1.1,0.1,2.1,0.4,2.9c0.3,0.8,0.7,1.6,1.2,2.2c0.5,0.6,1.1,1.2,1.7,1.6  c0.7,0.4,1.4,0.8,2.1,1.1c0.8,0.3,1.5,0.6,2.4,0.8c0.8,0.2,1.6,0.4,2.4,0.5c0.5,0.1,0.9,0.1,1.4,0.2c0.5,0.1,1,0.1,1.6,0.2  c1.1,0.1,2.2,0.3,3.4,0.6c1.2,0.3,2.4,0.6,3.5,1c1.1,0.4,2.2,0.9,3.3,1.4c1,0.6,1.9,1.2,2.7,2c0.8,0.7,1.4,1.6,1.8,2.6  c0.5,1,0.7,2,0.7,3.2c0,1.2-0.2,2.3-0.6,3.3c-0.4,1-1,1.8-1.7,2.6c-0.7,0.8-1.5,1.4-2.5,2c-1,0.6-2,1-3.1,1.4  c-1.1,0.4-2.2,0.6-3.4,0.8c-1.2,0.2-2.3,0.3-3.5,0.3c-0.9,0-1.8-0.1-2.9-0.2c-1.1-0.1-2.1-0.3-3.2-0.6c-1.1-0.3-2.1-0.5-3.2-0.9  c-1-0.3-1.9-0.7-2.7-1.1c-0.8-0.4-1.4-0.8-1.9-1.2c-0.5-0.4-0.7-0.9-0.7-1.3c0-0.1,0.2-0.2,0.5-0.2c0.4-0.1,0.7-0.1,1.2-0.1  c0.6,0,0.9,0,1.1,0.1c0.2,0.1,0.3,0.1,0.4,0.2c0.8,0.8,1.7,1.5,2.6,2c0.9,0.6,1.9,1,2.8,1.4c1,0.4,2,0.7,3,0.8c1,0.2,2,0.3,3,0.3  c0.9,0,1.7-0.1,2.6-0.2c0.9-0.1,1.8-0.3,2.6-0.6c0.9-0.3,1.6-0.7,2.4-1.1c0.7-0.5,1.4-1,2-1.7c0.6-0.7,1-1.4,1.3-2.3  c0.3-0.9,0.5-1.9,0.4-3c0-1-0.2-1.9-0.6-2.7c-0.4-0.8-0.9-1.5-1.5-2.1c-0.6-0.6-1.3-1.1-2.2-1.6c-0.8-0.4-1.7-0.8-2.6-1.1  c-0.9-0.3-1.8-0.5-2.8-0.7c-1-0.2-1.9-0.3-2.8-0.4l-2.6-0.3c-1.1-0.2-2.2-0.4-3.3-0.6c-1.1-0.3-2.1-0.6-3.1-1  c-1-0.4-1.9-0.9-2.8-1.5c-0.9-0.6-1.6-1.2-2.3-2c-0.7-0.7-1.2-1.6-1.5-2.5c-0.4-0.9-0.6-2-0.6-3.2c0-1.4,0.2-2.7,0.7-3.7  c0.5-1.1,1.2-2.1,2-2.9c0.9-0.8,1.8-1.5,3-2.1c1.1-0.6,2.3-1,3.6-1.4c1.3-0.3,2.6-0.6,3.9-0.8c1.3-0.2,2.6-0.2,3.9-0.2  c1.6,0,3.3,0.1,4.9,0.4c1.6,0.3,3.1,0.7,4.6,1.3c1.5,0.6,2.9,1.3,4.2,2.2C454.3,410.8,455.5,411.9,456.5,413.2L456.5,413.2z   M472.7,446.4c-0.7,0-1.1,0-1.3-0.1c-0.2-0.1-0.3-0.2-0.3-0.3v-38.8h-12c-0.5,0-0.9,0-1.3-0.1c-0.3-0.1-0.5-0.2-0.5-0.3  c0-0.2,0.2-0.3,0.5-0.3c0.3,0,0.7-0.1,1.3-0.1h27.5c0.7,0,1.1,0,1.4,0.1c0.3,0.1,0.4,0.2,0.4,0.3c0,0.1-0.1,0.1-0.2,0.2  c-0.1,0-0.2,0.1-0.4,0.1c-0.2,0-0.4,0-0.6,0.1c-0.2,0-0.4,0-0.6,0h-12.1V446c0,0.1-0.2,0.2-0.5,0.3  C473.7,446.4,473.2,446.4,472.7,446.4L472.7,446.4z M491.1,433.3l26,0.1c-1-2-2.1-4.2-3.2-6.3c-1.1-2.2-2.2-4.3-3.3-6.5  c-1.1-2.2-2.2-4.4-3.3-6.6c-1.1-2.2-2.2-4.3-3.2-6.4L491.1,433.3L491.1,433.3z M490.7,434.1l26.8,0.1c0.1,0.1,0.2,0.3,0.3,0.6  c0.1,0.3,0.3,0.6,0.5,1c0.3,0.5,0.6,1.2,0.9,1.9c0.4,0.7,0.7,1.5,1.1,2.2c0.4,0.8,0.8,1.5,1.2,2.3c0.4,0.8,0.8,1.4,1.2,2.1  c0.4,0.6,0.7,1.1,1.1,1.6c0.3,0.4,0.6,0.7,0.8,0.8c0.7,0,1.2-0.1,1.6-0.2c0.4-0.1,0.6-0.2,0.6-0.3c-3.5-6.9-6.7-13.1-9.5-18.7  c-0.8-1.6-1.6-3.2-2.4-4.7c-0.8-1.6-1.6-3.1-2.3-4.5c-0.7-1.5-1.4-2.8-2.1-4.1c-0.7-1.3-1.2-2.4-1.7-3.4c-0.5-1-0.9-1.8-1.3-2.5  c-0.3-0.7-0.6-1.1-0.7-1.4h0c-0.1-0.1-0.2-0.2-0.5-0.3c-0.3-0.1-0.7-0.1-1.3-0.1c-0.3,0-0.5,0-0.7,0c-0.2,0-0.3,0.1-0.5,0.1  c-0.1,0-0.2,0.1-0.2,0.1c-0.1,0-0.1,0.1-0.1,0.1h0c-1.1,2.2-2.2,4.3-3.4,6.6c-1.1,2.3-2.3,4.5-3.5,6.8c-1.2,2.3-2.3,4.5-3.5,6.8  c-1.1,2.2-2.3,4.5-3.4,6.6h-3.3c-0.5,0-0.9,0-1.3,0.1c-0.3,0-0.5,0.1-0.5,0.3c0,0.1,0.2,0.2,0.5,0.3c0.3,0.1,0.7,0.1,1.3,0.1h2.9  l-1.2,2.3c-0.3,0.6-0.6,1.3-1,2c-0.4,0.7-0.7,1.4-1.1,2.2c-0.4,0.7-0.7,1.4-1.1,2.1c-0.3,0.7-0.7,1.3-0.9,1.8  c-0.3,0.5-0.5,0.9-0.7,1.2c-0.2,0.3-0.3,0.5-0.3,0.4c0,0.1,0,0.1-0.1,0.1c0,0-0.1,0.1-0.1,0.1c0,0,0,0,0.1,0c0.1,0,0.2,0,0.5,0  c0.2,0,0.3,0,0.4-0.1c0.1-0.1,0.2-0.2,0.3-0.3c0.1-0.1,0.1-0.2,0.2-0.3c0-0.1,0.1-0.2,0.1-0.2L490.7,434.1L490.7,434.1z   M564.7,446.3c0,0-0.1,0-0.3,0c-0.2,0-0.5,0-0.8,0c-0.3,0-0.7,0-1.1,0c-0.4,0-0.8,0-1.2,0c-0.4,0-0.7,0-1,0c-0.3,0-0.6,0-0.7,0  c-2.9-2-5.4-3.7-7.6-5.2c-2.2-1.5-4.1-2.8-5.8-3.9c-1.6-1.1-3-2-4.1-2.8c-1.1-0.8-2.1-1.4-2.8-1.9c-0.7-0.5-1.3-0.9-1.7-1.1  c-0.4-0.3-0.7-0.5-0.9-0.6c-0.2-0.1-0.3-0.2-0.3-0.2c0,0-0.1,0-0.1,0c0-0.1,0-0.1,0-0.2c0-0.1,0-0.1,0-0.1c0,0,0.1-0.1,0.3-0.1  c0.1,0,0.4,0,0.8,0c0.8,0,1.4,0,2,0c0.6,0,1.1,0,1.5,0c0.4,0,0.8,0,1.2,0c0.3,0,0.7,0,1,0c0.9,0,1.9,0,2.9-0.1c1-0.1,2-0.1,3-0.3  c1.3-0.2,2.5-0.7,3.5-1.3c1.1-0.6,1.9-1.4,2.7-2.3c0.7-0.9,1.3-2.1,1.7-3.3c0.4-1.3,0.6-2.7,0.6-4.2c0-1.4-0.2-2.7-0.5-3.9  c-0.3-1.2-0.8-2.3-1.4-3.3c-0.6-1-1.4-1.8-2.3-2.4c-0.9-0.7-2-1.1-3.1-1.4c-0.9-0.2-1.8-0.3-2.7-0.4c-0.9-0.1-1.7-0.1-2.6-0.1h-11.2  V446c0,0.1-0.2,0.2-0.5,0.3c-0.3,0.1-0.8,0.1-1.3,0.1c-0.6,0-1,0-1.3-0.1c-0.3-0.1-0.4-0.2-0.4-0.3v-39.1c0-0.1,0.1-0.2,0.2-0.3  c0.2-0.1,0.4-0.1,0.6-0.1c0.2,0,0.5-0.1,0.7-0.1c0.3,0,0.5,0,0.7,0h13.1c2.2,0,4.2,0.2,6.1,0.7c1.9,0.5,3.5,1.2,4.9,2.2  c1.4,1,2.5,2.3,3.3,3.8c0.8,1.6,1.2,3.4,1.2,5.6c0,1.5-0.2,2.9-0.6,4.1c-0.4,1.2-1,2.3-1.7,3.2c-0.7,0.9-1.6,1.7-2.6,2.4  c-1,0.6-2.1,1.2-3.3,1.6c-1.2,0.4-2.5,0.7-3.9,0.9c-1.4,0.2-2.8,0.3-4.2,0.3c-0.3,0-0.5,0-0.6,0c-0.2,0-0.3,0-0.5,0  c-0.2,0-0.3,0-0.5,0c-0.2,0-0.4,0-0.6-0.1L564.7,446.3z"/>
</svg>